<svg width="177" height="184" viewBox="0 0 177 184" fill="none" xmlns="http://www.w3.org/2000/svg">
<path fill-rule="evenodd" clip-rule="evenodd" d="M46 86.9033V95.5747V137H131V101.575V92.9033L139.584 91.6754C155.082 89.4586 167 76.1124 167 60C167 42.3269 152.673 28 135 28C131.717 28 128.568 28.491 125.611 29.3968L118.257 31.6494L114.192 25.12C108.528 16.0206 98.4632 10 87 10C77.4445 10 68.8766 14.1757 62.9985 20.8349L58.5929 25.8259L52.2886 23.687C49.0726 22.5959 45.6162 22 42 22C24.3269 22 10 36.3269 10 54C10 70.1124 21.9177 83.4586 37.416 85.6754L46 86.9033ZM55.5014 14.2172C51.2642 12.7796 46.7231 12 42 12C18.804 12 0 30.804 0 54C0 75.1588 15.6462 92.6633 36 95.5747V140C36 143.866 39.134 147 43 147H134C137.866 147 141 143.866 141 140V101.575C161.354 98.6633 177 81.1588 177 60C177 36.804 158.196 18 135 18C130.714 18 126.577 18.6421 122.682 19.8353C115.269 7.92656 102.06 0 87 0C74.4565 0 63.1973 5.49874 55.5014 14.2172ZM38 161C38 158.239 40.2386 156 43 156H133C135.761 156 138 158.239 138 161C138 163.761 135.761 166 133 166H43C40.2386 166 38 163.761 38 161ZM43 174C40.2386 174 38 176.239 38 179C38 181.761 40.2386 184 43 184H133C135.761 184 138 181.761 138 179C138 176.239 135.761 174 133 174H43Z" fill="white"/>
</svg>
