<svg width="40" height="40" viewBox="0 0 40 40" fill="none" xmlns="http://www.w3.org/2000/svg">
<path fill-rule="evenodd" clip-rule="evenodd" d="M16.0638 28.2996C22.0538 32.2682 30.2039 31.6137 35.4814 26.3361C41.5062 20.3113 41.5062 10.5433 35.4814 4.51856C29.4567 -1.50619 19.6887 -1.50619 13.6639 4.51856C8.38634 9.79614 7.73184 17.9461 11.7004 23.9362C11.6968 23.9397 11.6932 23.9433 11.6896 23.9468L0.365914 35.2706C-0.121974 35.7584 -0.12197 36.5495 0.365915 37.0373L2.96263 39.6341C3.45052 40.1219 4.24153 40.1219 4.72942 39.6341L16.0531 28.3103C16.0567 28.3068 16.0603 28.3032 16.0638 28.2996ZM33.7147 24.5693C28.6657 29.6183 20.4797 29.6183 15.4307 24.5693C10.3817 19.5203 10.3817 11.3343 15.4307 6.28535C20.4797 1.23637 28.6657 1.23637 33.7147 6.28535C38.7636 11.3343 38.7636 19.5203 33.7147 24.5693Z" fill="#EB5757"/>
</svg>
