<svg width="38" height="39" viewBox="0 0 38 39" fill="none" xmlns="http://www.w3.org/2000/svg">
<ellipse cx="19" cy="19.4318" rx="19" ry="19.4318" fill="#EB5757"/>
<path d="M32.2999 12.9236C31.3563 13.3437 30.3422 13.6264 29.2772 13.756C30.3618 13.1003 31.1997 12.0677 31.5912 10.8348C30.5732 11.4395 29.4456 11.8792 28.2474 12.1148C27.2881 11.09 25.9217 10.45 24.4064 10.45C21.5011 10.45 19.144 12.8137 19.144 15.727C19.144 16.1393 19.191 16.5437 19.2811 16.9285C14.9075 16.7086 11.0313 14.6041 8.43534 11.412C7.98115 12.1933 7.72273 13.1003 7.72273 14.0701C7.72273 15.8998 8.65069 17.5135 10.0642 18.4598C9.19885 18.4323 8.38835 18.1967 7.67966 17.8002C7.67966 17.8237 7.67966 17.8433 7.67966 17.8669C7.67966 20.423 9.49251 22.555 11.9005 23.0418C11.4581 23.1636 10.996 23.2264 10.5144 23.2264C10.1738 23.2264 9.8449 23.195 9.52383 23.1321C10.1934 25.2249 12.1354 26.7562 14.4377 26.7954C12.6405 28.2129 10.3696 29.0531 7.90284 29.0531C7.47606 29.0531 7.06102 29.0295 6.6499 28.9824C8.97567 30.4784 11.7439 31.35 14.7157 31.35C24.3946 31.35 29.6883 23.3088 29.6883 16.3395C29.6883 16.1079 29.6844 15.8802 29.6726 15.6524C30.7024 14.9143 31.5951 13.9837 32.2999 12.9236Z" fill="white"/>
</svg>
