<svg width="38" height="39" viewBox="0 0 38 39" fill="none" xmlns="http://www.w3.org/2000/svg">
<ellipse cx="19" cy="19.4318" rx="19" ry="19.4318" fill="#EB5757"/>
<path d="M13.9476 6.65002C9.92265 6.65002 6.6499 9.92277 6.6499 13.9478V24.0523C6.6499 28.0773 9.92265 31.35 13.9476 31.35H24.0522C28.0772 31.35 31.3499 28.0773 31.3499 24.0523V13.9478C31.3499 9.92277 28.0772 6.65002 24.0522 6.65002H13.9476ZM25.7363 11.1409C26.3538 11.1409 26.859 11.6462 26.859 12.2637C26.859 12.8812 26.3538 13.3864 25.7363 13.3864C25.1188 13.3864 24.6135 12.8812 24.6135 12.2637C24.6135 11.6462 25.1188 11.1409 25.7363 11.1409ZM18.9999 12.825C22.4074 12.825 25.1749 15.5925 25.1749 19C25.1749 22.4075 22.4074 25.175 18.9999 25.175C15.5924 25.175 12.8249 22.4075 12.8249 19C12.8249 15.5925 15.5924 12.825 18.9999 12.825ZM18.9999 13.9478C16.2155 13.9478 13.9476 16.2157 13.9476 19C13.9476 21.7844 16.2155 24.0523 18.9999 24.0523C21.7843 24.0523 24.0522 21.7844 24.0522 19C24.0522 16.2157 21.7843 13.9478 18.9999 13.9478Z" fill="white"/>
</svg>
