<svg width="38" height="39" viewBox="0 0 38 39" fill="none" xmlns="http://www.w3.org/2000/svg">
<ellipse cx="19" cy="19.4318" rx="19" ry="19.4318" fill="#EB5757"/>
<path d="M14.2161 9.5C8.9887 9.5 4.75 13.7539 4.75 19C4.75 24.2461 8.9887 28.5 14.2161 28.5C19.4434 28.5 23.6821 24.2461 23.6821 19C23.6821 18.3482 23.6111 17.7122 23.4876 17.1L23.435 16.8889H14.2161V20.0556H20.5268C20.0246 23.0507 17.3425 25.3333 14.2161 25.3333C10.7294 25.3333 7.90536 22.4992 7.90536 19C7.90536 15.5008 10.7294 12.6667 14.2161 12.6667C15.7937 12.6667 17.2321 13.2525 18.3391 14.2131L20.6004 11.9911C18.9176 10.4447 16.6772 9.5 14.2161 9.5ZM28.9411 13.7222V16.8889H25.7857V19H28.9411V22.1667H31.0446V19H34.2V16.8889H31.0446V13.7222H28.9411Z" fill="white"/>
</svg>
