<svg width="38" height="38" viewBox="0 0 38 38" fill="none" xmlns="http://www.w3.org/2000/svg">
<circle cx="19" cy="19" r="19" fill="#EB5757"/>
<path d="M21.4237 24.0727C22.5283 24.0727 23.4237 23.1773 23.4237 22.0727V20.1455C25.2542 20.3636 28 20.5382 28 16.8727C28 14.2545 25.2542 13.4909 23.4237 13.9273C23.8305 12.2909 22.5085 10 19.1525 10C15.7966 10 14.983 12.1818 15.1864 13.6C13.3559 13.3818 10 13.6 10 17.5273C10 20.4727 12.7457 20.8 14.2712 20.1455L14.2712 22.8524C14.2712 23.5264 14.8176 24.0727 15.4915 24.0727H16.7119H21.4237Z" fill="white"/>
<path d="M14.5763 26.0364H23.1187M14.5763 28H23.1187M23.4237 20.1455V22.0727C23.4237 23.1773 22.5283 24.0727 21.4237 24.0727H16.7119H15.4915V24.0727C14.8176 24.0727 14.2712 23.5264 14.2712 22.8524L14.2712 20.1455C12.7457 20.8 10 20.4727 10 17.5273C10 13.6 13.3559 13.3818 15.1864 13.6C14.983 12.1818 15.7966 10 19.1525 10C22.5085 10 23.8305 12.2909 23.4237 13.9273C25.2542 13.4909 28 14.2545 28 16.8727C28 20.5382 25.2542 20.3636 23.4237 20.1455Z" stroke="white" stroke-linecap="round"/>
</svg>
